<svg xmlns="http://www.w3.org/2000/svg" viewBox="0 0 400 500" width="400" height="500" preserveAspectRatio="xMidYMid slice">
  <defs><linearGradient id="brand1bg" x1="0%" y1="0%" x2="100%" y2="100%"><stop offset="0%" style="stop-color:#F5EDE0"/><stop offset="100%" style="stop-color:#E0D0B8"/></linearGradient></defs>
  <rect width="400" height="500" fill="url(#brand1bg)"/>
  <circle cx="320" cy="80" r="70" fill="#E8A87C" opacity="0.12"/>
  <circle cx="60" cy="420" r="80" fill="#2D6A5E" opacity="0.08"/>
  <g transform="translate(200, 260)">
    <ellipse cx="0" cy="140" rx="130" ry="16" fill="#000" opacity="0.05"/>
    <rect x="-100" y="-80" width="200" height="200" rx="10" fill="#FAF7F2" stroke="#D4C4A8" stroke-width="1.5"/>
    <rect x="-92" y="-72" width="184" height="184" rx="6" fill="#F5EFE6"/>
    <g transform="translate(-40, -30)">
      <circle cx="0" cy="0" r="28" fill="#E8A87C"/>
      <g fill="none" stroke="#D48B5C" stroke-width="1.5" opacity="0.4"><circle cx="0" cy="0" r="20"/><circle cx="0" cy="0" r="12"/></g>
    </g>
    <g transform="translate(35, -20)">
      <circle cx="0" cy="0" r="24" fill="#7AB5A6"/>
      <g fill="none" stroke="#5A9A8C" stroke-width="1.5" opacity="0.4"><circle cx="0" cy="0" r="17"/><circle cx="0" cy="0" r="10"/></g>
    </g>
    <g transform="translate(0, 40)">
      <rect x="-50" y="-25" width="100" height="50" rx="6" fill="#FFFFFF" stroke="#E0D5C5"/>
      <line x1="-35" y1="-10" x2="35" y2="-10" stroke="#E8A87C" stroke-width="2" opacity="0.4"/>
      <line x1="-35" y1="5" x2="20" y2="5" stroke="#C9A96E" stroke-width="1.5" opacity="0.3"/>
      <line x1="-35" y1="17" x2="28" y2="17" stroke="#C9A96E" stroke-width="1.5" opacity="0.25"/>
    </g>
    <g transform="translate(-60, 80)">
      <rect x="0" y="0" width="16" height="24" rx="2" fill="#2D6A5E"/>
    </g>
    <g transform="translate(-35, 82)">
      <rect x="0" y="0" width="14" height="22" rx="2" fill="#E8A87C"/>
    </g>
    <g transform="translate(-12, 81)">
      <rect x="0" y="0" width="13" height="23" rx="2" fill="#C9A96E"/>
    </g>
  </g>
  <g transform="translate(70, 100) rotate(-15)">
    <path d="M0 0 Q12 -30 0 -50 Q-12 -30 0 0Z" fill="#7AB5A6" opacity="0.6"/>
  </g>
</svg>
