<svg xmlns="http://www.w3.org/2000/svg" viewBox="0 0 300 400" width="300" height="400" preserveAspectRatio="xMidYMid slice">
  <defs><linearGradient id="cat1bg" x1="0%" y1="0%" x2="100%" y2="100%"><stop offset="0%" style="stop-color:#FDE8E3"/><stop offset="100%" style="stop-color:#F5D5BC"/></linearGradient></defs>
  <rect width="300" height="400" fill="url(#cat1bg)"/>
  <circle cx="250" cy="350" r="80" fill="#E07A5F" opacity="0.1"/>
  <g transform="translate(150, 200)">
    <ellipse cx="0" cy="80" rx="90" ry="15" fill="#FAF7F2" opacity="0.8"/>
    <path d="M-50 -60 Q-60 -20 -40 20 Q-20 50 0 55 Q20 50 40 20 Q60 -20 50 -60 Q25 -80 0 -75 Q-25 -80 -50 -60Z" fill="#E8A87C"/>
    <path d="M-50 -60 Q-60 -20 -40 20 Q-20 50 0 55 Q20 50 40 20 Q60 -20 50 -60 Q25 -80 0 -75 Q-25 -80 -50 -60Z" fill="#FFFFFF" opacity="0.15"/>
    <ellipse cx="0" cy="-60" rx="50" ry="14" fill="#D48B5C"/>
    <ellipse cx="0" cy="-62" rx="44" ry="10" fill="#8B5E3C"/>
    <g stroke="#FFFFFF" stroke-width="1.5" opacity="0.3" fill="none">
      <path d="M-35 -30 Q-20 -40 -5 -30 Q10 -40 25 -30 Q35 -40 42 -30"/>
      <path d="M-30 0 Q-15 -10 0 0 Q15 -10 30 0 Q38 -10 42 0"/>
      <path d="M-22 25 Q-10 18 0 25 Q10 18 22 25 Q30 18 35 25"/>
    </g>
    <circle cx="-15" cy="-100" r="4" fill="#C9A96E"/>
    <circle cx="10" cy="-105" r="3" fill="#E8A87C"/>
    <circle cx="25" cy="-95" r="3.5" fill="#7AB5A6"/>
  </g>
  <text x="150" y="370" text-anchor="middle" font-family="serif" font-size="16" fill="#8B5E3C" opacity="0.6">手工饰品</text>
</svg>
