<svg xmlns="http://www.w3.org/2000/svg" viewBox="0 0 400 400" width="400" height="400">
  <defs><linearGradient id="p2bg" x1="0%" y1="0%" x2="100%" y2="100%"><stop offset="0%" style="stop-color:#E8F2EF"/><stop offset="100%" style="stop-color:#C5D8CF"/></linearGradient></defs>
  <rect width="400" height="400" fill="url(#p2bg)"/>
  <circle cx="80" cy="90" r="55" fill="#7AB5A6" opacity="0.12"/>
  <g transform="translate(200, 200)">
    <ellipse cx="0" cy="110" rx="110" ry="16" fill="#000" opacity="0.06"/>
    <ellipse cx="0" cy="100" rx="100" ry="14" fill="#FAF7F2"/>
    <path d="M-65 -30 Q-72 60 -50 95 L50 95 Q72 60 65 -30 Z" fill="#A68B6B"/>
    <path d="M-65 -30 Q-72 60 -50 95 L50 95 Q72 60 65 -30 Z" fill="#FFFFFF" opacity="0.1"/>
    <ellipse cx="0" cy="-30" rx="65" ry="16" fill="#8B7355"/>
    <ellipse cx="0" cy="-33" rx="58" ry="12" fill="#6B5344"/>
    <path d="M65 -10 Q95 -10 95 25 Q95 55 65 50" fill="none" stroke="#A68B6B" stroke-width="16" stroke-linecap="round"/>
    <g stroke="#6B5344" stroke-width="1.5" opacity="0.25" fill="none">
      <path d="M-50 0 Q0 -8 50 0"/><path d="M-48 30 Q0 22 48 30"/><path d="M-42 60 Q0 52 42 60"/>
    </g>
    <g opacity="0.5" stroke="#FFFFFF" stroke-width="2" fill="none" stroke-linecap="round">
      <path d="M-20 -50 Q-25 -65 -15 -75"><animate attributeName="opacity" values="0.5;0.1;0.5" dur="3s" repeatCount="indefinite"/></path>
      <path d="M0 -52 Q-5 -68 5 -78"><animate attributeName="opacity" values="0.3;0.6;0.3" dur="2.5s" repeatCount="indefinite"/></path>
      <path d="M18 -48 Q13 -62 23 -70"><animate attributeName="opacity" values="0.6;0.2;0.6" dur="2s" repeatCount="indefinite"/></path>
    </g>
  </g>
  <g transform="translate(90, 320)">
    <ellipse cx="0" cy="5" rx="25" ry="6" fill="#000" opacity="0.05"/>
    <rect x="-12" y="-20" width="24" height="25" rx="3" fill="#C9A96E"/>
    <ellipse cx="0" cy="-20" rx="12" ry="4" fill="#A68B4B"/>
  </g>
</svg>
